<?xml version="1.0" encoding="utf-8"?>
<!-- Generator: Adobe Illustrator 16.0.0, SVG Export Plug-In . SVG Version: 6.00 Build 0)  -->
<!DOCTYPE svg PUBLIC "-//W3C//DTD SVG 1.1//EN" "http://www.w3.org/Graphics/SVG/1.1/DTD/svg11.dtd">
<svg version="1.1" id="Layer_1" xmlns="http://www.w3.org/2000/svg" xmlns:xlink="http://www.w3.org/1999/xlink" x="0px" y="0px"
	 width="650px" height="650px" viewBox="0 0 650 650" enable-background="new 0 0 650 650" xml:space="preserve">
<g>
	<path fill="#5D5D5D" d="M333.224,407.266c0,1.006-0.03,2.313-0.091,3.919c-0.061,1.608-0.15,3.115-0.271,4.521h-40.271
		c0,2.692,0.412,5.063,1.236,7.114c0.823,2.049,1.989,3.768,3.496,5.154s3.315,2.441,5.426,3.164
		c2.11,0.724,4.451,1.086,7.023,1.086c2.974,0,6.158-0.23,9.555-0.693c3.396-0.462,6.923-1.215,10.58-2.262v11.695
		c-1.567,0.443-3.275,0.845-5.124,1.207c-1.849,0.361-3.737,0.682-5.667,0.964c-1.929,0.28-3.879,0.491-5.848,0.634
		c-1.97,0.14-3.879,0.211-5.727,0.211c-4.663,0-8.843-0.664-12.54-1.99s-6.832-3.285-9.404-5.877
		c-2.572-2.593-4.542-5.797-5.907-9.616c-1.367-3.817-2.05-8.238-2.05-13.263c0-4.982,0.683-9.515,2.05-13.594
		c1.365-4.079,3.295-7.576,5.787-10.49c2.491-2.914,5.516-5.164,9.072-6.752c3.558-1.587,7.525-2.381,11.907-2.381
		c4.34,0,8.178,0.674,11.514,2.02c3.336,1.347,6.129,3.225,8.38,5.637c2.25,2.411,3.958,5.285,5.124,8.621
		S333.224,403.287,333.224,407.266z M318.272,405.156c0.04-2.412-0.262-4.512-0.904-6.3c-0.644-1.788-1.518-3.265-2.622-4.431
		c-1.106-1.166-2.392-2.029-3.858-2.593c-1.468-0.562-3.045-0.844-4.732-0.844c-3.698,0-6.732,1.235-9.104,3.708
		c-2.371,2.471-3.777,5.958-4.22,10.459H318.272z"/>
	<path fill="#5D5D5D" d="M401.104,407.266c0,1.006-0.03,2.313-0.091,3.919c-0.061,1.608-0.15,3.115-0.271,4.521h-40.271
		c0,2.692,0.412,5.063,1.236,7.114c0.823,2.049,1.989,3.768,3.496,5.154s3.315,2.441,5.426,3.164
		c2.11,0.724,4.451,1.086,7.023,1.086c2.974,0,6.158-0.23,9.555-0.693c3.396-0.462,6.923-1.215,10.58-2.262v11.695
		c-1.567,0.443-3.275,0.845-5.124,1.207c-1.849,0.361-3.737,0.682-5.667,0.964c-1.929,0.28-3.879,0.491-5.848,0.634
		c-1.97,0.14-3.879,0.211-5.727,0.211c-4.663,0-8.843-0.664-12.54-1.99s-6.832-3.285-9.404-5.877
		c-2.572-2.593-4.542-5.797-5.907-9.616c-1.367-3.817-2.05-8.238-2.05-13.263c0-4.982,0.683-9.515,2.05-13.594
		c1.365-4.079,3.295-7.576,5.787-10.49c2.491-2.914,5.516-5.164,9.072-6.752c3.558-1.587,7.525-2.381,11.907-2.381
		c4.34,0,8.178,0.674,11.514,2.02c3.336,1.347,6.129,3.225,8.38,5.637c2.25,2.411,3.958,5.285,5.124,8.621
		S401.104,403.287,401.104,407.266z M386.153,405.156c0.04-2.412-0.262-4.512-0.904-6.3c-0.644-1.788-1.518-3.265-2.622-4.431
		c-1.106-1.166-2.392-2.029-3.858-2.593c-1.468-0.562-3.045-0.844-4.732-0.844c-3.698,0-6.732,1.235-9.104,3.708
		c-2.371,2.471-3.777,5.958-4.22,10.459H386.153z"/>
	<path fill="#5D5D5D" d="M454.154,442.594l-0.361-9.043c-1.286,1.566-2.613,2.994-3.979,4.279c-1.367,1.287-2.834,2.382-4.401,3.286
		s-3.246,1.606-5.033,2.11c-1.789,0.502-3.769,0.754-5.938,0.754c-3.617,0-6.833-0.725-9.646-2.171
		c-2.813-1.446-5.175-3.506-7.083-6.179c-1.91-2.673-3.367-5.918-4.371-9.736c-1.005-3.818-1.507-8.078-1.507-12.781
		c0-5.626,0.793-10.498,2.381-14.619c1.587-4.119,3.788-7.535,6.602-10.248c2.813-2.713,6.148-4.723,10.007-6.028
		s8.058-1.96,12.6-1.96c1.527,0,3.064,0.102,4.612,0.303c1.547,0.201,2.924,0.462,4.129,0.783V357.41h14.71v85.184H454.154z
		 M427.268,412.451c0,3.375,0.23,6.26,0.693,8.65c0.462,2.392,1.146,4.352,2.05,5.878c0.904,1.528,2.02,2.644,3.346,3.346
		c1.326,0.704,2.833,1.056,4.521,1.056c2.491,0,4.862-1.005,7.113-3.016c2.251-2.008,4.643-4.762,7.174-8.258V393.34
		c-1.166-0.441-2.603-0.803-4.31-1.084c-1.709-0.281-3.428-0.423-5.155-0.423c-2.371,0-4.501,0.482-6.39,1.446
		c-1.89,0.965-3.507,2.332-4.854,4.1c-1.347,1.77-2.381,3.93-3.104,6.48C427.629,406.412,427.268,409.276,427.268,412.451z"/>
</g>
<g>
	<path fill="#2078B4" d="M140.03,331.186v109.408c0,2.2,1.799,4,4,4h31.355c2.199,0,4-1.8,4-4V335.186H144.03
		C141.829,335.186,140.03,333.386,140.03,331.186z"/>
	<path fill="#2078B4" d="M140.03,301.797v29.388c0,2.2,1.799,4,4,4h35.355v-37.388H144.03
		C141.829,297.797,140.03,299.597,140.03,301.797z"/>
	<rect x="179.386" y="297.797" fill="#2078B4" width="92.614" height="37.388"/>
	<path fill="#2078B4" d="M140.03,198.557v103.24c0-2.2,1.799-4,4-4h35.355v-95.24H144.03
		C141.829,202.557,140.03,200.757,140.03,198.557z"/>
	<path fill="#2078B4" d="M175.386,165.169H144.03c-2.201,0-4,1.8-4,4v29.388c0,2.2,1.799,4,4,4h35.355v-33.388
		C179.386,166.969,177.585,165.169,175.386,165.169z"/>
	<path fill="#2078B4" d="M175.386,165.169c2.199,0,4,1.8,4,4v33.388H299v-37.388H175.386z"/>
</g>
</svg>
